<?xml version="1.0" encoding="UTF-8" standalone="no"?>
<!DOCTYPE svg PUBLIC "-//W3C//DTD SVG 1.1//EN"
 "http://www.w3.org/Graphics/SVG/1.1/DTD/svg11.dtd">
<!-- Generated by graphviz version 2.40.1 (20161225.0304)
 -->
<!-- Title: G Pages: 1 -->
<svg width="365pt" height="336pt"
 viewBox="0.00 0.00 365.49 336.00" xmlns="http://www.w3.org/2000/svg" xmlns:xlink="http://www.w3.org/1999/xlink">
<g id="graph0" class="graph" transform="scale(1 1) rotate(0) translate(4 332)">
<title>G</title>
<polygon fill="#ffffff" stroke="transparent" points="-4,4 -4,-332 361.4937,-332 361.4937,4 -4,4"/>
<g id="clust1" class="cluster">
<title>cluster_server</title>
<polygon fill="none" stroke="#000000" points="74,-44 74,-320 349.4937,-320 349.4937,-44 74,-44"/>
<text text-anchor="middle" x="211.7468" y="-304.8" font-family="Times,serif" font-size="14.00" fill="#000000">Server environment</text>
</g>
<g id="clust2" class="cluster">
<title>cluster_replicas</title>
<polygon fill="none" stroke="#000000" points="82,-52 82,-289 242,-289 242,-52 82,-52"/>
<text text-anchor="middle" x="162" y="-273.8" font-family="Times,serif" font-size="14.00" fill="#000000">Replicas</text>
</g>
<!-- M -->
<g id="node1" class="node">
<title>M</title>
<ellipse fill="none" stroke="#000000" cx="305.7468" cy="-74" rx="35.9954" ry="18"/>
<text text-anchor="middle" x="305.7468" y="-70.3" font-family="Times,serif" font-size="14.00" fill="#000000">Master</text>
</g>
<!-- S0 -->
<g id="node2" class="node">
<title>S0</title>
<ellipse fill="none" stroke="#000000" cx="207" cy="-105" rx="27" ry="18"/>
<text text-anchor="middle" x="207" y="-101.3" font-family="Times,serif" font-size="14.00" fill="#000000">S0</text>
</g>
<!-- S0&#45;&gt;M -->
<g id="edge1" class="edge">
<title>S0&#45;&gt;M</title>
<path fill="none" stroke="#000000" d="M231.6633,-97.2574C241.9137,-94.0394 254.0786,-90.2204 265.5571,-86.6169"/>
<polygon fill="#000000" stroke="#000000" points="266.9096,-89.8608 275.4022,-83.5262 264.8129,-83.1822 266.9096,-89.8608"/>
</g>
<!-- S1 -->
<g id="node3" class="node">
<title>S1</title>
<ellipse fill="none" stroke="#000000" cx="117" cy="-240" rx="27" ry="18"/>
<text text-anchor="middle" x="117" y="-236.3" font-family="Times,serif" font-size="14.00" fill="#000000">S1</text>
</g>
<!-- S1&#45;&gt;S0 -->
<g id="edge2" class="edge">
<title>S1&#45;&gt;S0</title>
<path fill="none" stroke="#000000" d="M133.1466,-225.2179C136.9112,-221.4119 140.7621,-217.2002 144,-213 164.0615,-186.9761 182.4256,-153.9668 194.0853,-131.3322"/>
<polygon fill="#000000" stroke="#000000" points="197.2555,-132.8192 198.6572,-122.3175 191.0125,-129.653 197.2555,-132.8192"/>
</g>
<!-- S2 -->
<g id="node4" class="node">
<title>S2</title>
<ellipse fill="none" stroke="#000000" cx="117" cy="-186" rx="27" ry="18"/>
<text text-anchor="middle" x="117" y="-182.3" font-family="Times,serif" font-size="14.00" fill="#000000">S2</text>
</g>
<!-- S2&#45;&gt;S0 -->
<g id="edge3" class="edge">
<title>S2&#45;&gt;S0</title>
<path fill="none" stroke="#000000" d="M133.0902,-171.5188C146.9542,-159.0413 167.1669,-140.8498 182.9519,-126.6433"/>
<polygon fill="#000000" stroke="#000000" points="185.6541,-128.9201 190.7457,-119.6289 180.9713,-123.717 185.6541,-128.9201"/>
</g>
<!-- S3 -->
<g id="node5" class="node">
<title>S3</title>
<ellipse fill="none" stroke="#000000" cx="117" cy="-132" rx="27" ry="18"/>
<text text-anchor="middle" x="117" y="-128.3" font-family="Times,serif" font-size="14.00" fill="#000000">S3</text>
</g>
<!-- S3&#45;&gt;S0 -->
<g id="edge4" class="edge">
<title>S3&#45;&gt;S0</title>
<path fill="none" stroke="#000000" d="M142.07,-124.479C151.5102,-121.6469 162.4169,-118.3749 172.564,-115.3308"/>
<polygon fill="#000000" stroke="#000000" points="173.803,-118.6133 182.3755,-112.3874 171.7915,-111.9085 173.803,-118.6133"/>
</g>
<!-- Sn -->
<g id="node6" class="node">
<title>Sn</title>
<ellipse fill="none" stroke="#000000" cx="117" cy="-78" rx="27" ry="18"/>
<text text-anchor="middle" x="117" y="-74.3" font-family="Times,serif" font-size="14.00" fill="#000000">Sn</text>
</g>
<!-- Sn&#45;&gt;S0 -->
<g id="edge5" class="edge">
<title>Sn&#45;&gt;S0</title>
<path fill="none" stroke="#000000" d="M142.07,-85.521C151.5102,-88.3531 162.4169,-91.6251 172.564,-94.6692"/>
<polygon fill="#000000" stroke="#000000" points="171.7915,-98.0915 182.3755,-97.6126 173.803,-91.3867 171.7915,-98.0915"/>
</g>
<!-- C0 -->
<g id="node7" class="node">
<title>C0</title>
<ellipse fill="none" stroke="#000000" cx="207" cy="-18" rx="27" ry="18"/>
<text text-anchor="middle" x="207" y="-14.3" font-family="Times,serif" font-size="14.00" fill="#000000">C0</text>
</g>
<!-- C0&#45;&gt;M -->
<g id="edge6" class="edge">
<title>C0&#45;&gt;M</title>
<path fill="none" stroke="#000000" d="M227.9417,-29.8762C240.9752,-37.2676 258.0186,-46.933 272.8306,-55.333"/>
<polygon fill="#000000" stroke="#000000" points="271.2839,-58.4794 281.709,-60.368 274.737,-52.3904 271.2839,-58.4794"/>
</g>
<!-- C1 -->
<g id="node8" class="node">
<title>C1</title>
<ellipse fill="none" stroke="#000000" cx="117" cy="-18" rx="27" ry="18"/>
<text text-anchor="middle" x="117" y="-14.3" font-family="Times,serif" font-size="14.00" fill="#000000">C1</text>
</g>
<!-- C1&#45;&gt;S0 -->
<g id="edge7" class="edge">
<title>C1&#45;&gt;S0</title>
<path fill="none" stroke="#000000" d="M132.6768,-33.1542C146.8727,-46.877 167.9646,-67.2658 184.0568,-82.8216"/>
<polygon fill="#000000" stroke="#000000" points="181.8803,-85.5856 191.5028,-90.0194 186.7455,-80.5527 181.8803,-85.5856"/>
</g>
<!-- C2 -->
<g id="node9" class="node">
<title>C2</title>
<ellipse fill="none" stroke="#000000" cx="27" cy="-186" rx="27" ry="18"/>
<text text-anchor="middle" x="27" y="-182.3" font-family="Times,serif" font-size="14.00" fill="#000000">C2</text>
</g>
<!-- C2&#45;&gt;S2 -->
<g id="edge8" class="edge">
<title>C2&#45;&gt;S2</title>
<path fill="none" stroke="#000000" d="M54.003,-186C62.0277,-186 70.9665,-186 79.5309,-186"/>
<polygon fill="#000000" stroke="#000000" points="79.7051,-189.5001 89.705,-186 79.705,-182.5001 79.7051,-189.5001"/>
</g>
</g>
</svg>
